# xmcd
#
# Track frame offsets:
#	150
#	4184
#	23633
#	36732
#	60612
#	77044
#	92569
#	94933
#	116580
#	132483
#	160817
#	173517
#	189042
#	204336
#	214761
#	240240
#
# Disc length: 3209 seconds
#
# Revision: 3
# Processed by: cddbd v1.5.2PL0 Copyright (c) Steve Scherf et al.
# Submitted via: audiograbber 1.83.01
#
DISCID=c60c8710
DTITLE=Céu - céu
DYEAR=2007
DGENRE=Brazillian
TTITLE0=vinheta quebrante
TTITLE1=lenda
TTITLE2=malemolência
TTITLE3=roda
TTITLE4=rainha
TTITLE5=10 contados
TTITLE6=vinheta Dorival
TTITLE7=mais um lamento
TTITLE8=concrete jungle
TTITLE9=véu da noite
TTITLE10=valsa pra Biu Roque
TTITLE11=ave cruz
TTITLE12=o ronco da cuíca
TTITLE13=bobagem
TTITLE14=samba na sola
TTITLE15=Data
EXTD=YEAR: 2007
EXTT0=
EXTT1=
EXTT2=
EXTT3=
EXTT4=
EXTT5=
EXTT6=
EXTT7=
EXTT8=
EXTT9=
EXTT10=
EXTT11=
EXTT12=
EXTT13=
EXTT14=
EXTT15=
PLAYORDER=
